<?xml version="1.0"?>
<svg width="487.95" height="487.95" xmlns="http://www.w3.org/2000/svg" xmlns:svg="http://www.w3.org/2000/svg" enable-background="new 0 0 487.95 487.95" version="1.1" xml:space="preserve">
 <g class="layer">
  <title>Layer 1</title>
  <g id="svg_1">
   <g id="svg_2">
    <path d="m482.8,455l-140,-140.1c27.6,-33.1 44.2,-75.4 44.2,-121.6c0,-105.4 -86.5,-191.1 -192.9,-191.1s-193.1,85.8 -193.1,191.2s86.5,191.1 192.9,191.1c45.2,0 86.8,-15.5 119.8,-41.4l140.5,140.5c8.2,8.2 20.4,8.2 28.6,0c8.2,-8.2 8.2,-20.4 0,-28.6zm-440.8,-261.6c0,-82.8 68.2,-150.1 151.9,-150.1s151.9,67.3 151.9,150.1s-68.2,150.1 -151.9,150.1s-151.9,-67.4 -151.9,-150.1z" fill="#bf00bf" id="svg_3" stroke="#bf00bf"/>
   </g>
  </g>
  <g id="svg_4"/>
  <g id="svg_5"/>
  <g id="svg_6"/>
  <g id="svg_7"/>
  <g id="svg_8"/>
  <g id="svg_9"/>
  <g id="svg_10"/>
  <g id="svg_11"/>
  <g id="svg_12"/>
  <g id="svg_13"/>
  <g id="svg_14"/>
  <g id="svg_15"/>
  <g id="svg_16"/>
  <g id="svg_17"/>
  <g id="svg_18"/>
 </g>
</svg>